                 
                                                                        FraMeSToR-HD
                                                                          PRESENTS:
						Star.Trek.First.Contact.1996.Bluray.1080p.TRUEHD.x264.dxva-FraMeSToR.mkv

Movieinfo:                       : http://www.imdb.com/title/tt0117731/
Complete name                    : Star.Trek.First.Contact.1996.Bluray.1080p.TRUEHD.x264.dxva-FraMeSToR

General
Format                           : Matroska
File size                        : 13.3 GiB
Duration                         : 1h 50mn

Video
ID                               : 1
Format                           : AVC
Format/Info                      : Advanced Video Codec
Format profile                   : High@L4.1
Format settings, CABAC           : Yes
Format settings, ReFrames        : 4 frames
Muxing mode                      : Container profile=Unknown@4.1
Codec ID                         : V_MPEG4/ISO/AVC
Duration                         : 1h 50mn
Nominal bit rate                 : 11.9 Mbps
Width                            : 1 920 pixels
Height                           : 818 pixels
Display aspect ratio             : 2.35:1
Frame rate                       : 23.976 fps
Resolution                       : 24 bits
Colorimetry                      : 4:2:0
Scan type                        : Progressive
Bits/(Pixel*Frame)               : 0.317
Writing library                  : x264 core 93 r1538 bd72d46
Encoding settings                : cabac=1 / ref=5 / deblock=1:-4:-4 / analyse=0x3:0x113 / me=umh / subme=10 / psy=1 / psy_rd=1.00:0.00 / mixed_ref=1 / me_range=48 / chroma_me=1 / trellis=2 / 8x8dct=1 / cqm=0 / deadzone=21,11 / fast_pskip=1 / chroma_qp_offset=-2 / threads=12 / sliced_threads=0 / nr=0 / decimate=1 / interlaced=0 / constrained_intra=0 / bframes=8 / b_pyramid=1 / b_adapt=2 / b_bias=0 / direct=2 / wpredb=1 / wpredp=2 / keyint=250 / keyint_min=25 / scenecut=40 / intra_refresh=0 / rc_lookahead=40 / rc=2pass / mbtree=1 / bitrate=11923 / ratetol=2.0 / qcomp=0.70 / qpmin=10 / qpmax=51 / qpstep=4 / cplxblur=20.0 / qblur=0.5 / vbv_maxrate=50000 / vbv_bufsize=50000 / ip_ratio=1.40 / aq=1:0.80 / nal_hrd=none
Language                         : English

Audio #1
ID                               : 2
Format                           : TrueHD
Codec ID                         : A_TRUEHD
Codec ID/Info                    : Dolby TrueHD
Duration                         : 1h 50mn
Channel(s)                       : 6 channels
Sampling rate                    : 48.0 KHz
Language                         : English

Audio #2
ID                               : 3
Format                           : AC-3
Format/Info                      : Audio Coding 3
Codec ID                         : A_AC3
Duration                         : 1h 50mn
Bit rate mode                    : Constant
Bit rate                         : 640 Kbps
Channel(s)                       : 6 channels
Channel positions                : Front: L C R, Surround: L R, LFE
Sampling rate                    : 48.0 KHz
Stream size                      : 507 MiB (4%)
Language                         : English

Audio #3
ID                               : 4
Format                           : AC-3
Format/Info                      : Audio Coding 3
Format profile                   : Dolby Digital
Codec ID                         : A_AC3
Duration                         : 1h 50mn
Bit rate mode                    : Constant
Bit rate                         : 224 Kbps
Channel(s)                       : 2 channels
Channel positions                : L R
Sampling rate                    : 48.0 KHz
Stream size                      : 177 MiB (1%)
Language                         : English

Audio #4
ID                               : 5
Format                           : AC-3
Format/Info                      : Audio Coding 3
Format profile                   : Dolby Digital
Codec ID                         : A_AC3
Duration                         : 1h 50mn
Bit rate mode                    : Constant
Bit rate                         : 224 Kbps
Channel(s)                       : 2 channels
Channel positions                : L R
Sampling rate                    : 48.0 KHz
Stream size                      : 177 MiB (1%)
Language                         : English

Audio #5
ID                               : 6
Format                           : AC-3
Format/Info                      : Audio Coding 3
Format profile                   : Dolby Digital
Codec ID                         : A_AC3
Duration                         : 1h 50mn
Bit rate mode                    : Constant
Bit rate                         : 224 Kbps
Channel(s)                       : 2 channels
Channel positions                : L R
Sampling rate                    : 48.0 KHz
Stream size                      : 177 MiB (1%)
Language                         : English

Subtitles                        : English, Dutch

Notes:
******

 Commentary by Damon Lindelof and Anthony Pascale
 Audio Commentary by Jonathan Frakes
 Audio Commentary by screenplay writers Brannon Braga and Ronald D. Moore

If you would like to discuss and check out our upcomming releases, visit us at http://framestor-hd.org


Greetz:
*******
Big Shout out to all who support our group, our fellow collegue encoders and our community members. 
No FraMeSToR without you guys :)
